<svg width="50" height="32" viewBox="0 0 50 32" fill="none" xmlns="http://www.w3.org/2000/svg">
<g clip-path="url(#clip0_53_723)">
<rect width="50" height="32" rx="3" fill="#03001F"/>
<path d="M10.9137 11.709C8.23345 11.709 6 12.8461 6 16.2766C6 18.9944 7.50183 20.7059 10.9829 20.7059C15.0803 20.7059 15.3429 18.0068 15.3429 18.0068H13.3576C13.3576 18.0068 12.9319 19.4602 10.8618 19.4602C9.17575 19.4602 7.96309 18.3212 7.96309 16.7248H15.5506V15.723C15.5506 14.1436 14.5479 11.709 10.9137 11.709ZM10.8445 12.9893C12.4494 12.9893 13.5436 13.9725 13.5436 15.4462H8.007C8.007 13.8817 9.43513 12.9893 10.8445 12.9893Z" fill="#E53238"/>
<path d="M15.5488 8.38672V18.9827C15.5488 19.5842 15.5059 20.4287 15.5059 20.4287H17.3995C17.3995 20.4287 17.4675 19.8222 17.4675 19.2678C17.4675 19.2678 18.403 20.7315 20.9469 20.7315C23.6258 20.7315 25.4454 18.8717 25.4454 16.2071C25.4454 13.7283 23.774 11.7346 20.9513 11.7346C18.308 11.7346 17.4866 13.162 17.4866 13.162V8.38672H15.5488ZM20.4625 13.0452C22.2816 13.0452 23.4384 14.3953 23.4384 16.2071C23.4384 18.1499 22.1023 19.4209 20.4755 19.4209C18.5339 19.4209 17.4866 17.9049 17.4866 16.2244C17.4866 14.6585 18.4264 13.0452 20.4625 13.0452Z" fill="#0064D2"/>
<path d="M30.152 11.709C26.1197 11.709 25.8611 13.9168 25.8611 14.2696H27.8681C27.8681 14.2696 27.9734 12.9807 30.0136 12.9807C31.3393 12.9807 32.3666 13.5875 32.3666 14.7541V15.1693H30.0136C26.8897 15.1693 25.2383 16.0832 25.2383 17.9376C25.2383 19.7626 26.7642 20.7556 28.8262 20.7556C31.6365 20.7556 32.5418 19.2028 32.5418 19.2028C32.5418 19.8204 32.5894 20.4291 32.5894 20.4291H34.3736C34.3736 20.4291 34.3044 19.6746 34.3044 19.192V15.0201C34.3044 12.2847 32.098 11.709 30.152 11.709ZM32.3666 16.4151V16.9687C32.3666 17.6908 31.921 19.4861 29.2977 19.4861C27.8612 19.4861 27.2453 18.7692 27.2453 17.9376C27.2453 16.4248 29.3194 16.4151 32.3666 16.4151Z" fill="#F5AF02"/>
<path d="M33.2227 12.0547H35.4805L38.7209 18.5465L41.9539 12.0547H43.9992L38.1104 23.6122H35.965L37.6643 20.3904L33.2227 12.0547Z" fill="#86B817"/>
</g>
<defs>
<clipPath id="clip0_53_723">
<rect width="50" height="32" fill="white"/>
</clipPath>
</defs>
</svg>
