<svg width="50" height="32" viewBox="0 0 50 32" fill="none" xmlns="http://www.w3.org/2000/svg">
<g clip-path="url(#clip0_53_724)">
<rect width="50" height="32" rx="3" fill="#5485EC"/>
<path d="M23.9716 16.827V21.2502H22.5684V10.3269H26.2899C26.7342 10.3176 27.1758 10.3964 27.5895 10.5587C28.0031 10.721 28.3805 10.9636 28.6998 11.2726C29.0224 11.5627 29.2791 11.9186 29.4528 12.3162C29.6264 12.7138 29.7129 13.144 29.7065 13.5778C29.7157 14.014 29.6305 14.447 29.4568 14.8472C29.283 15.2473 29.0248 15.6052 28.6998 15.8962C28.0491 16.5168 27.2458 16.8268 26.2899 16.8262H23.9716V16.827ZM23.9716 11.6717V15.4848H26.3248C26.5828 15.4925 26.8395 15.4462 27.0786 15.3489C27.3177 15.2517 27.5338 15.1056 27.7132 14.9201C27.8917 14.7466 28.0335 14.539 28.1304 14.3098C28.2272 14.0805 28.2771 13.8341 28.2771 13.5853C28.2771 13.3364 28.2272 13.09 28.1304 12.8607C28.0335 12.6315 27.8917 12.4239 27.7132 12.2505C27.5361 12.061 27.3207 11.9113 27.0813 11.8114C26.842 11.7115 26.5841 11.6636 26.3248 11.6709H23.9716V11.6717Z" fill="white"/>
<path d="M32.9402 13.5332C33.9773 13.5332 34.796 13.8104 35.3963 14.3647C35.9965 14.919 36.2963 15.679 36.2957 16.6447V21.2509H34.9535V20.2138H34.8925C34.3114 21.0679 33.5387 21.495 32.5741 21.495C31.7508 21.495 31.062 21.2509 30.5076 20.7628C30.2416 20.5388 30.0289 20.2583 29.8851 19.9416C29.7413 19.625 29.6699 19.2803 29.6762 18.9326C29.6762 18.1592 29.9684 17.5441 30.553 17.0874C31.1375 16.6307 31.9178 16.4018 32.894 16.4007C33.7272 16.4007 34.4134 16.5532 34.9526 16.8582V16.5375C34.9542 16.3004 34.903 16.066 34.8028 15.8512C34.7025 15.6364 34.5557 15.4466 34.373 15.2955C34.002 14.9607 33.5184 14.7781 33.0186 14.7839C32.2348 14.7839 31.6145 15.1145 31.1578 15.7757L29.9219 14.9974C30.6018 14.0213 31.6078 13.5332 32.9402 13.5332ZM31.1247 18.9631C31.1238 19.1416 31.1655 19.3179 31.2465 19.4771C31.3274 19.6362 31.4452 19.7738 31.5901 19.8782C31.9005 20.1223 32.2857 20.2516 32.6805 20.2443C33.2726 20.2433 33.8402 20.0076 34.2589 19.5888C34.7237 19.1513 34.9561 18.638 34.9561 18.0488C34.5186 17.7002 33.9085 17.5258 33.1258 17.5258C32.5558 17.5258 32.0805 17.6633 31.6999 17.9381C31.3156 18.217 31.1247 18.556 31.1247 18.9631Z" fill="white"/>
<path d="M43.9997 13.7773L39.3142 24.5455H37.8656L39.6044 20.7778L36.5234 13.7773H38.0487L40.2755 19.1462H40.306L42.4719 13.7773H43.9997Z" fill="white"/>
<path d="M18.3014 15.8736C18.3019 15.446 18.2658 15.0191 18.1933 14.5977H12.2754V17.0145H15.6649C15.5956 17.4005 15.4487 17.7685 15.2333 18.0962C15.0179 18.424 14.7384 18.7047 14.4116 18.9215V20.4903H16.4345C17.619 19.3982 18.3014 17.7832 18.3014 15.8736Z" fill="white"/>
<path d="M12.2748 22.0059C13.9682 22.0059 15.3941 21.4498 16.4339 20.4911L14.411 18.9223C13.8479 19.304 13.1228 19.5219 12.2748 19.5219C10.638 19.5219 9.24868 18.4185 8.75188 16.9316H6.66797V18.5484C7.19027 19.5877 7.99116 20.4614 8.98123 21.072C9.97129 21.6825 11.1116 22.0058 12.2748 22.0059Z" fill="white"/>
<path d="M8.75212 16.9309C8.48948 16.1518 8.48948 15.308 8.75212 14.5289V12.9121H6.6682C6.22883 13.7864 6 14.7514 6 15.7299C6 16.7084 6.22883 17.6733 6.6682 18.5477L8.75212 16.9309Z" fill="white"/>
<path d="M12.2748 11.9395C13.1697 11.9248 14.0344 12.263 14.682 12.8807L16.4731 11.0897C15.3374 10.0229 13.8328 9.43729 12.2748 9.45549C11.1116 9.45554 9.97129 9.77889 8.98123 10.3894C7.99116 11 7.19027 11.8737 6.66797 12.913L8.75188 14.5297C9.24868 13.0429 10.638 11.9395 12.2748 11.9395Z" fill="white"/>
</g>
<defs>
<clipPath id="clip0_53_724">
<rect width="50" height="32" fill="white"/>
</clipPath>
</defs>
</svg>
