<svg width="50" height="32" viewBox="0 0 50 32" fill="none" xmlns="http://www.w3.org/2000/svg">
<rect width="50" height="32" rx="3" fill="#0F3560"/>
<path d="M29.3625 23.8644H20.6133V8.14062H29.3625V23.8644Z" fill="#FF5F00"/>
<path d="M21.1738 16.002C21.1738 12.8123 22.6672 9.97105 24.9928 8.14004C23.2922 6.80111 21.1458 6.00195 18.8132 6.00195C13.2909 6.00195 8.81445 10.479 8.81445 16.002C8.81445 21.5249 13.2909 26.002 18.8132 26.002C21.1458 26.002 23.2922 25.2028 24.9928 23.8639C22.6672 22.0329 21.1738 19.1916 21.1738 16.002Z" fill="#EB001B"/>
<path d="M41.1615 16.002C41.1615 21.5249 36.685 26.002 31.1627 26.002C28.8301 26.002 26.6837 25.2028 24.9824 23.8639C27.3087 22.0329 28.8021 19.1916 28.8021 16.002C28.8021 12.8123 27.3087 9.97105 24.9824 8.14004C26.6837 6.80111 28.8301 6.00195 31.1627 6.00195C36.685 6.00195 41.1615 10.479 41.1615 16.002Z" fill="#F79E1B"/>
<path d="M16.3388 16.0661C16.3388 15.6293 16.6251 15.2704 17.0928 15.2704C17.5397 15.2704 17.8414 15.6138 17.8414 16.0661C17.8414 16.5183 17.5397 16.8617 17.0928 16.8617C16.6251 16.8617 16.3388 16.5029 16.3388 16.0661ZM18.3508 16.0661V14.8235H17.8105V15.1252C17.6391 14.9015 17.3791 14.761 17.0256 14.761C16.3287 14.761 15.7824 15.3073 15.7824 16.0661C15.7824 16.8254 16.3287 17.3711 17.0256 17.3711C17.3791 17.3711 17.6391 17.2307 17.8105 17.0069V17.3086H18.3508V16.0661ZM36.6106 16.0661C36.6106 15.6293 36.8969 15.2704 37.3646 15.2704C37.8121 15.2704 38.1132 15.6138 38.1132 16.0661C38.1132 16.5183 37.8121 16.8617 37.3646 16.8617C36.8969 16.8617 36.6106 16.5029 36.6106 16.0661ZM38.6232 16.0661V13.8255H38.0823V15.1252C37.9109 14.9015 37.6509 14.761 37.2974 14.761C36.6005 14.761 36.0542 15.3073 36.0542 16.0661C36.0542 16.8254 36.6005 17.3711 37.2974 17.3711C37.6509 17.3711 37.9109 17.2307 38.0823 17.0069V17.3086H38.6232V16.0661ZM25.0581 15.2448C25.4063 15.2448 25.63 15.4632 25.6871 15.8477H24.3976C24.4553 15.4888 24.6731 15.2448 25.0581 15.2448ZM25.0688 14.761C24.3404 14.761 23.831 15.2912 23.831 16.0661C23.831 16.8563 24.3613 17.3711 25.1051 17.3711C25.4794 17.3711 25.8222 17.2777 26.1239 17.023L25.8591 16.6225C25.6508 16.7885 25.3854 16.8825 25.1361 16.8825C24.788 16.8825 24.4708 16.7213 24.3928 16.2737H26.2382C26.2435 16.2065 26.2489 16.1387 26.2489 16.0661C26.2435 15.2912 25.7651 14.761 25.0688 14.761ZM31.5934 16.0661C31.5934 15.6293 31.8797 15.2704 32.3474 15.2704C32.7943 15.2704 33.096 15.6138 33.096 16.0661C33.096 16.5183 32.7943 16.8617 32.3474 16.8617C31.8797 16.8617 31.5934 16.5029 31.5934 16.0661ZM33.6054 16.0661V14.8235H33.0651V15.1252C32.8931 14.9015 32.6336 14.761 32.2802 14.761C31.5833 14.761 31.037 15.3073 31.037 16.0661C31.037 16.8254 31.5833 17.3711 32.2802 17.3711C32.6336 17.3711 32.8931 17.2307 33.0651 17.0069V17.3086H33.6054V16.0661ZM28.5418 16.0661C28.5418 16.82 29.0667 17.3711 29.8677 17.3711C30.242 17.3711 30.4913 17.2878 30.7615 17.0747L30.502 16.6379C30.2991 16.7837 30.0861 16.8617 29.8516 16.8617C29.4201 16.8563 29.103 16.5445 29.103 16.0661C29.103 15.5876 29.4201 15.2758 29.8516 15.2704C30.0861 15.2704 30.2991 15.3484 30.502 15.4942L30.7615 15.0574C30.4913 14.8443 30.242 14.761 29.8677 14.761C29.0667 14.761 28.5418 15.3121 28.5418 16.0661ZM35.5085 14.761C35.1967 14.761 34.9938 14.9068 34.8533 15.1252V14.8235H34.3178V17.3086H34.8587V15.9155C34.8587 15.5043 35.0354 15.2758 35.3889 15.2758C35.4984 15.2758 35.6127 15.2912 35.7269 15.3383L35.8936 14.8289C35.7739 14.7818 35.618 14.761 35.5085 14.761ZM21.0234 15.0211C20.7633 14.8497 20.4051 14.761 20.01 14.761C19.3804 14.761 18.9751 15.0627 18.9751 15.5567C18.9751 15.9619 19.2768 16.2119 19.8326 16.2898L20.0879 16.3261C20.3843 16.3678 20.5241 16.4457 20.5241 16.5862C20.5241 16.7784 20.3266 16.8879 19.9576 16.8879C19.5833 16.8879 19.3131 16.7683 19.131 16.6278L18.8763 17.0486C19.1727 17.267 19.547 17.3711 19.9522 17.3711C20.6699 17.3711 21.0859 17.0331 21.0859 16.56C21.0859 16.1232 20.7586 15.8947 20.2176 15.8167L19.963 15.7798C19.7291 15.7489 19.5416 15.7025 19.5416 15.5358C19.5416 15.3537 19.7184 15.2448 20.0147 15.2448C20.3319 15.2448 20.639 15.3644 20.7895 15.4579L21.0234 15.0211ZM27.9955 14.761C27.6837 14.761 27.4807 14.9068 27.3409 15.1252V14.8235H26.8053V17.3086H27.3457V15.9155C27.3457 15.5043 27.5224 15.2758 27.8759 15.2758C27.9854 15.2758 28.0996 15.2912 28.2139 15.3383L28.3805 14.8289C28.2609 14.7818 28.105 14.761 27.9955 14.761ZM23.3841 14.8235H22.5004V14.0695H21.9541V14.8235H21.4501V15.3174H21.9541V16.4511C21.9541 17.0277 22.1779 17.3711 22.817 17.3711C23.0515 17.3711 23.3216 17.2985 23.493 17.1789L23.3371 16.7159C23.1759 16.8093 22.9991 16.8563 22.8587 16.8563C22.5885 16.8563 22.5004 16.6897 22.5004 16.4404V15.3174H23.3841V14.8235ZM15.3046 17.3086V15.7489C15.3046 15.1615 14.9303 14.7664 14.3268 14.761C14.0097 14.7557 13.6824 14.8545 13.4532 15.2032C13.2819 14.9276 13.0117 14.761 12.632 14.761C12.3666 14.761 12.1071 14.839 11.9042 15.13V14.8235H11.3633V17.3086H11.909V15.931C11.909 15.4995 12.1482 15.2704 12.5178 15.2704C12.8766 15.2704 13.0581 15.5043 13.0581 15.9256V17.3086H13.6044V15.931C13.6044 15.4995 13.8537 15.2704 14.2126 15.2704C14.5815 15.2704 14.7583 15.5043 14.7583 15.9256V17.3086H15.3046Z" fill="white"/>
</svg>
