<svg width="50" height="32" viewBox="0 0 50 32" fill="none" xmlns="http://www.w3.org/2000/svg">
<g clip-path="url(#clip0_53_722)">
<rect width="50" height="32" rx="3" fill="#082069"/>
<path d="M14.8735 20.9004H12.8008C12.659 20.9004 12.5384 21.0034 12.5162 21.1435L11.678 26.4584C11.6613 26.5632 11.7425 26.6578 11.8489 26.6578H12.8384C12.9802 26.6578 13.1009 26.5548 13.123 26.4144L13.3491 24.9809C13.3709 24.8406 13.4918 24.7376 13.6334 24.7376H14.2895C15.6548 24.7376 16.4428 24.0769 16.6486 22.7676C16.7413 22.1948 16.6525 21.7447 16.3843 21.4295C16.0897 21.0834 15.5672 20.9004 14.8735 20.9004ZM15.1126 22.8416C14.9993 23.5853 14.431 23.5853 13.8816 23.5853H13.5688L13.7882 22.1963C13.8013 22.1124 13.874 22.0505 13.9589 22.0505H14.1022C14.4765 22.0505 14.8296 22.0505 15.012 22.2639C15.1208 22.3912 15.1542 22.5803 15.1126 22.8416Z" fill="white"/>
<path d="M21.0695 22.816H20.077C19.9924 22.816 19.9194 22.8778 19.9064 22.9618L19.8624 23.2394L19.793 23.1388C19.5781 22.8269 19.099 22.7227 18.6207 22.7227C17.5239 22.7227 16.5871 23.5534 16.4047 24.7187C16.3098 25.3 16.4447 25.8558 16.7744 26.2434C17.0769 26.5998 17.5097 26.7483 18.0246 26.7483C18.9083 26.7483 19.3984 26.1801 19.3984 26.1801L19.3542 26.4559C19.3375 26.5613 19.4187 26.6559 19.5245 26.6559H20.4185C20.5607 26.6559 20.6807 26.5528 20.7031 26.4125L21.2396 23.0154C21.2565 22.9109 21.1756 22.816 21.0695 22.816ZM19.686 24.7478C19.5903 25.3148 19.1402 25.6955 18.5662 25.6955C18.278 25.6955 18.0476 25.603 17.8997 25.4279C17.753 25.2539 17.6973 25.0063 17.744 24.7305C17.8334 24.1683 18.291 23.7752 18.8562 23.7752C19.1381 23.7752 19.3672 23.8689 19.5181 24.0456C19.6694 24.2241 19.7294 24.4732 19.686 24.7478Z" fill="white"/>
<path d="M26.3549 22.8164H25.3575C25.2623 22.8164 25.1729 22.8637 25.119 22.9428L23.7433 24.9691L23.1602 23.0219C23.1236 22.9001 23.0111 22.8164 22.8838 22.8164H21.9037C21.7846 22.8164 21.7019 22.9328 21.7397 23.0449L22.8384 26.269L21.8055 27.727C21.7243 27.8419 21.8061 27.9998 21.9464 27.9998H22.9426C23.0372 27.9998 23.1257 27.9537 23.1793 27.8762L26.4967 23.0877C26.5761 22.9731 26.4946 22.8164 26.3549 22.8164Z" fill="white"/>
<path d="M29.6567 20.8984H27.5837C27.4422 20.8984 27.3216 21.0015 27.2995 21.1415L26.4612 26.4564C26.4445 26.5613 26.5257 26.6558 26.6315 26.6558H27.6953C27.7941 26.6558 27.8786 26.5837 27.8941 26.4855L28.132 24.979C28.1538 24.8386 28.2747 24.7356 28.4163 24.7356H29.0721C30.4377 24.7356 31.2254 24.0749 31.4315 22.7656C31.5245 22.1928 31.4351 21.7428 31.1669 21.4276C30.8726 21.0815 30.3505 20.8984 29.6567 20.8984ZM29.8958 22.8396C29.7828 23.5833 29.2145 23.5833 28.6648 23.5833H28.3523L28.572 22.1944C28.5851 22.1104 28.6572 22.0486 28.7424 22.0486H28.8857C29.2597 22.0486 29.6131 22.0486 29.7955 22.2619C29.9043 22.3892 29.9374 22.5784 29.8958 22.8396Z" fill="white"/>
<path d="M35.8534 22.816H34.8615C34.7763 22.816 34.7039 22.8778 34.6911 22.9618L34.6472 23.2394L34.5775 23.1388C34.3626 22.8269 33.8838 22.7227 33.4055 22.7227C32.3087 22.7227 31.3722 23.5534 31.1898 24.7187C31.0952 25.3 31.2295 25.8558 31.5592 26.2434C31.8623 26.5998 32.2945 26.7483 32.8094 26.7483C33.6931 26.7483 34.1832 26.1801 34.1832 26.1801L34.1389 26.4559C34.1223 26.5613 34.2035 26.6559 34.3099 26.6559H35.2036C35.3452 26.6559 35.4658 26.5528 35.4879 26.4125L36.0246 23.0154C36.041 22.9109 35.9598 22.816 35.8534 22.816ZM34.4699 24.7478C34.3747 25.3148 33.9241 25.6955 33.35 25.6955C33.0624 25.6955 32.8315 25.603 32.6836 25.4279C32.5369 25.2539 32.4817 25.0063 32.5278 24.7305C32.6178 24.1683 33.0749 23.7752 33.6401 23.7752C33.9219 23.7752 34.1511 23.8689 34.302 24.0456C34.4538 24.2241 34.5138 24.4732 34.4699 24.7478Z" fill="white"/>
<path d="M37.0228 21.0445L36.1721 26.4567C36.1554 26.5616 36.2367 26.6562 36.3424 26.6562H37.1977C37.3398 26.6562 37.4604 26.5531 37.4823 26.4128L38.3212 21.0982C38.3378 20.9933 38.2566 20.8984 38.1508 20.8984H37.1931C37.1086 20.8987 37.0358 20.9606 37.0228 21.0445Z" fill="white"/>
<path opacity="0.68" d="M30.116 7.42382C30.2805 6.37542 30.1149 5.66222 29.5479 5.016C28.9237 4.30472 27.7959 4 26.3531 4H22.1647C21.8699 4 21.6187 4.21454 21.5728 4.50594L19.8287 15.5653C19.7943 15.7835 19.963 15.9808 20.1838 15.9808H22.7695L22.591 17.1125C22.561 17.3034 22.7084 17.4759 22.9016 17.4759H25.0812C25.3391 17.4759 25.5587 17.2883 25.5989 17.0334L25.6204 16.9225L26.0309 14.3189L26.0574 14.1751C26.0976 13.9203 26.3172 13.7324 26.5751 13.7324H26.9011C29.0126 13.7324 30.6659 12.8747 31.1489 10.3939C31.3508 9.35726 31.2464 8.49198 30.7126 7.88364C30.5513 7.69999 30.3503 7.5479 30.116 7.42382Z" fill="white"/>
<path opacity="0.7" d="M30.116 7.42382C30.2805 6.37542 30.1149 5.66222 29.5479 5.016C28.9237 4.30472 27.7959 4 26.3531 4H22.1647C21.8699 4 21.6187 4.21454 21.5728 4.50594L19.8287 15.5653C19.7943 15.7835 19.963 15.9808 20.1838 15.9808H22.7695L23.419 11.862L23.3988 11.9911C23.4448 11.6999 23.6936 11.4852 23.9886 11.4852H25.2176C27.6312 11.4852 29.5212 10.5046 30.0732 7.66883C30.0897 7.5851 30.1035 7.5037 30.116 7.42382Z" fill="white"/>
<path d="M24.1168 7.43768C24.1444 7.26254 24.257 7.11896 24.4083 7.04649C24.4771 7.01355 24.5541 6.99515 24.6347 6.99515H27.9178C28.3068 6.99515 28.6695 7.02068 29.0009 7.07408C29.0956 7.08931 29.1879 7.10688 29.2775 7.12679C29.367 7.14669 29.454 7.16879 29.5382 7.1935C29.5803 7.20571 29.6216 7.21875 29.6624 7.2322C29.8252 7.28628 29.9769 7.34997 30.1163 7.42395C30.2808 6.37556 30.1152 5.66236 29.5482 5.01614C28.9237 4.30472 27.7959 4 26.3531 4H22.1647C21.8699 4 21.6187 4.21454 21.5728 4.50594L19.8287 15.5653C19.7943 15.7835 19.963 15.9808 20.1838 15.9808H22.7695L23.419 11.862L24.1168 7.43768Z" fill="white"/>
</g>
<defs>
<clipPath id="clip0_53_722">
<rect width="50" height="32" fill="white"/>
</clipPath>
</defs>
</svg>
