<svg width="221" height="170" viewBox="0 0 221 170" fill="none" xmlns="http://www.w3.org/2000/svg">
<rect x="20.125" y="94.6484" width="178.447" height="40.631" fill="#11029B"/>
<rect x="39.5" y="60.5898" width="178.447" height="40.631" transform="rotate(-4.89257 39.5 60.5898)" fill="#11029B"/>
<path d="M153.602 169.642L198.452 135.316H195.941L167.794 138.785L153.602 169.642Z" fill="#11029B"/>
<path d="M169.389 135.316L167.794 138.785L195.941 135.316H169.389Z" fill="#141034"/>
<path d="M45.1293 46.5669C54.1004 57.4552 57.9725 70.1028 52.4251 74.6735C46.8776 79.2441 33.3869 74.817 24.4159 63.9287C15.4448 53.0405 13.8675 39.5363 19.415 34.9657C24.9625 30.3951 36.1583 35.6787 45.1293 46.5669Z" fill="#11029B"/>
<ellipse cx="35.2747" cy="54.8974" rx="9.48213" ry="20.6214" transform="rotate(-39.4857 35.2747 54.8974)" fill="white"/>
<ellipse cx="28.1842" cy="60.6538" rx="9.96059" ry="7.41535" transform="rotate(30.6653 28.1842 60.6538)" fill="#11029B"/>
<path d="M27.4273 94.7657C25.5453 92.0924 24.1881 90.8854 21.4472 89.0248C15.0101 88.7529 11.8251 86.3879 6.63691 78.739C5.06129 82.5643 3.27954 86.5398 1.23438 90.9384C4.99074 98.7248 7.91761 99.9867 13.9122 99.3106L19.2943 93.0912L24.796 97.2773L27.4273 94.7657Z" fill="#F1111D"/>
<path d="M21.4472 89.0248C32.9512 81.812 38.8697 77.4083 51.4674 74.1941C33.6466 74.1941 22.7933 62.6895 17.1415 42.1406C14.121 59.5844 12.9567 63.6538 6.63691 78.739C11.8251 86.3879 15.0101 88.7529 21.4472 89.0248Z" fill="white"/>
<path d="M21.4472 89.0248C32.9512 81.812 38.8697 77.4083 51.4674 74.1941C33.6466 74.1941 22.7933 62.6895 17.1415 42.1406C14.121 59.5844 12.9567 63.6538 6.63691 78.739M21.4472 89.0248C24.1881 90.8854 25.5453 92.0924 27.4273 94.7657L24.796 97.2773L19.2943 93.0912L13.9122 99.3106C7.91761 99.9867 4.99074 98.7248 1.23438 90.9384C3.27954 86.5398 5.06129 82.5643 6.63691 78.739M21.4472 89.0248C15.0101 88.7529 11.8251 86.3879 6.63691 78.739" stroke="#11029B" stroke-width="1.43523" stroke-miterlimit="1.8118" stroke-linejoin="round"/>
<path d="M20.6484 36.3383C25.3664 32.451 35.6965 37.195 43.7216 46.935C51.7464 56.6749 54.4274 67.7221 49.7099 71.6098C44.9918 75.4971 34.6607 70.7532 26.6357 61.0131C18.6106 51.2729 15.9303 40.2256 20.6484 36.3383ZM42.6142 48.8676C35.3722 40.0779 26.2253 35.652 22.1835 38.9818C18.1418 42.3118 20.7356 52.1365 27.9775 60.9262C35.2195 69.7159 44.3674 74.142 48.4091 70.8119C52.4504 67.4817 49.8559 57.6571 42.6142 48.8676Z" fill="#F1111D"/>
<path d="M44.5247 1.35156L37.3745 22.1102C37.2968 22.3359 37.5613 22.5238 37.7488 22.376L46.6202 15.3832C46.809 15.2344 47.0747 15.4257 46.9934 15.6519L40.0994 34.8402" stroke="#11029B" stroke-width="1.43523" stroke-linecap="round"/>
<path d="M65.909 16.2685L50.5048 31.9134C50.3374 32.0835 50.495 32.367 50.7279 32.3146L61.7478 29.8318C61.9823 29.779 62.1395 30.0662 61.9686 30.2352L47.4729 44.5737" stroke="#11029B" stroke-width="1.43523" stroke-linecap="round"/>
<path d="M87.1207 44.0754L65.2126 45.5191C64.9744 45.5348 64.9036 45.8514 65.1125 45.967L74.9944 51.4396C75.2047 51.5561 75.1312 51.8751 74.8911 51.8877L54.5302 52.9597" stroke="#11029B" stroke-width="1.43523" stroke-linecap="round"/>
<path d="M70.5405 78.9769C70.3741 77.0321 70.673 75.2491 71.437 73.628C72.22 72.0053 73.3471 70.6989 74.8181 69.7088C76.3065 68.698 77.9755 68.1134 79.8249 67.9552C81.9413 67.7741 83.8643 68.1378 85.5937 69.0462C87.3406 69.9339 88.6674 71.2992 89.5742 73.1423L85.6559 73.4775C85.0514 72.4729 84.2695 71.7523 83.3103 71.3158C82.351 70.8793 81.2708 70.7124 80.0696 70.8152C78.754 70.9278 77.6067 71.3236 76.6277 72.0028C75.6486 72.6819 74.9109 73.5997 74.4144 74.7562C73.937 75.911 73.7611 77.2224 73.8867 78.6906C74.0123 80.1587 74.4085 81.4213 75.0751 82.4782C75.7608 83.5335 76.6445 84.3222 77.7263 84.8442C78.8065 85.3472 80.0044 85.5424 81.32 85.4299C82.5212 85.3271 83.5573 84.9791 84.4285 84.386C85.2997 83.7929 85.9478 82.95 86.3729 81.8573L90.2911 81.5221C89.7106 83.4924 88.635 85.0633 87.0643 86.2348C85.5126 87.4047 83.6786 88.0802 81.5622 88.2613C79.6937 88.4211 77.9505 88.1381 76.3327 87.4122C74.7132 86.6673 73.3798 85.5618 72.3325 84.0957C71.3042 82.6279 70.7069 80.9217 70.5405 78.9769ZM103.685 86.3974C101.836 86.5556 100.092 86.2726 98.4555 85.5483C96.8361 84.8034 95.5027 83.6979 94.4553 82.2318C93.4254 80.745 92.8273 79.0292 92.6609 77.0844C92.4945 75.1396 92.7933 73.3566 93.5573 71.7355C94.3404 70.1128 95.4674 68.8064 96.9384 67.8163C98.4269 66.8055 100.096 66.2209 101.945 66.0627C103.814 65.9028 105.558 66.1954 107.177 66.9403C108.814 67.6646 110.147 68.7605 111.175 70.2283C112.203 71.696 112.801 73.4023 112.967 75.3471C113.133 77.2919 112.835 79.0844 112.073 80.7245C111.309 82.3456 110.183 83.6615 108.694 84.6724C107.223 85.6625 105.554 86.2375 103.685 86.3974ZM103.443 83.566C104.758 83.4534 105.906 83.0575 106.885 82.3784C107.862 81.6802 108.59 80.7537 109.067 79.5988C109.562 78.4233 109.746 77.1015 109.621 75.6334C109.495 74.1652 109.09 72.9035 108.404 71.8482C107.737 70.7913 106.864 70.0113 105.784 69.5083C104.703 69.0054 103.506 68.8102 102.19 68.9227C100.874 69.0353 99.7271 69.4311 98.748 70.1103C97.769 70.7894 97.0313 71.7072 96.5348 72.8637C96.0574 74.0185 95.8815 75.3299 96.0071 76.7981C96.1327 78.2662 96.5297 79.5383 97.1979 80.6143C97.8836 81.6696 98.7673 82.4583 99.8491 82.9803C100.929 83.4833 102.127 83.6785 103.443 83.566ZM136.264 63.3859L137.965 83.2629L134.704 83.5419L133.539 69.9282L128.641 84.0606L126.382 84.2539L119.125 71.1615L120.29 84.7751L117.029 85.054L115.329 65.177L118.847 64.876L127.158 79.866L132.775 63.6844L136.264 63.3859ZM143.81 62.7403L145.51 82.6174L142.25 82.8963L140.549 63.0192L143.81 62.7403ZM166.122 80.854L162.861 81.1329L151.781 67.1287L153.051 81.9722L149.791 82.2511L148.088 62.3455L151.348 62.0665L162.426 76.0421L161.158 61.2273L164.419 60.9483L166.122 80.854ZM183.578 65.0999C182.978 64.1524 182.199 63.47 181.242 63.0526C180.283 62.6161 179.202 62.4492 178.001 62.552C176.686 62.6645 175.538 63.0604 174.559 63.7395C173.58 64.4187 172.842 65.3269 172.344 66.4643C171.865 67.6001 171.686 68.8829 171.809 70.3129C171.931 71.7429 172.325 72.9864 172.992 74.0433C173.676 75.0796 174.558 75.8492 175.638 76.3522C176.718 76.8552 177.916 77.0504 179.232 76.9378C181.005 76.7861 182.402 76.1672 183.423 75.0811C184.444 73.995 185.006 72.5929 185.109 70.8748L177.644 71.5134L177.422 68.9108L188.375 67.9737L188.593 70.5191C188.516 72.0814 188.084 73.5492 187.299 74.9224C186.533 76.294 185.468 77.4318 184.105 78.3359C182.759 79.2193 181.219 79.7352 179.484 79.8836C177.615 80.0435 175.872 79.7605 174.254 79.0346C172.635 78.2897 171.302 77.1841 170.254 75.718C169.226 74.2503 168.629 72.544 168.462 70.5992C168.296 68.6544 168.595 66.8715 169.359 65.2504C170.142 63.6277 171.269 62.3213 172.74 61.3311C174.228 60.3203 175.897 59.7358 177.747 59.5776C179.863 59.3965 181.786 59.7601 183.516 60.6685C185.262 61.5562 186.589 62.9216 187.496 64.7646L183.578 65.0999Z" fill="white"/>
<path d="M79.0934 125.22C77.7538 125.22 76.5482 124.991 75.4766 124.532C74.405 124.053 73.563 123.383 72.9506 122.522C72.3382 121.661 72.0321 120.656 72.0321 119.508H75.534C75.6106 120.369 75.9454 121.077 76.5387 121.632C77.151 122.187 78.0026 122.465 79.0934 122.465C80.2224 122.465 81.1027 122.197 81.7342 121.661C82.3657 121.106 82.6814 120.398 82.6814 119.537C82.6814 118.867 82.4805 118.322 82.0787 117.901C81.6959 117.48 81.2079 117.154 80.6147 116.925C80.0406 116.695 79.2369 116.446 78.2035 116.179C76.9023 115.834 75.8402 115.49 75.0173 115.145C74.2136 114.782 73.5247 114.227 72.9506 113.48C72.3765 112.734 72.0895 111.739 72.0895 110.495C72.0895 109.347 72.3765 108.342 72.9506 107.481C73.5247 106.62 74.3284 105.96 75.3618 105.5C76.3951 105.041 77.5912 104.812 78.9499 104.812C80.8826 104.812 82.4614 105.299 83.6861 106.275C84.93 107.232 85.6189 108.553 85.7528 110.237H82.1361C82.0787 109.509 81.7342 108.888 81.1027 108.371C80.4712 107.854 79.6388 107.596 78.6054 107.596C77.6677 107.596 76.9023 107.835 76.309 108.313C75.7158 108.792 75.4192 109.481 75.4192 110.38C75.4192 110.993 75.601 111.5 75.9646 111.902C76.3473 112.284 76.8257 112.59 77.3998 112.82C77.9739 113.05 78.7585 113.298 79.7536 113.566C81.074 113.93 82.1456 114.294 82.9685 114.657C83.8105 115.021 84.5185 115.585 85.0926 116.351C85.6859 117.097 85.9825 118.102 85.9825 119.365C85.9825 120.379 85.705 121.336 85.15 122.235C84.6142 123.135 83.8201 123.862 82.7676 124.417C81.7342 124.953 80.5095 125.22 79.0934 125.22ZM98.943 125.22C97.0868 125.22 95.3741 124.79 93.8049 123.929C92.2549 123.048 91.0206 121.833 90.102 120.283C89.2026 118.714 88.7529 116.954 88.7529 115.002C88.7529 113.05 89.2026 111.299 90.102 109.749C91.0206 108.199 92.2549 106.993 93.8049 106.132C95.3741 105.252 97.0868 104.812 98.943 104.812C100.818 104.812 102.531 105.252 104.081 106.132C105.65 106.993 106.885 108.199 107.784 109.749C108.683 111.299 109.133 113.05 109.133 115.002C109.133 116.954 108.683 118.714 107.784 120.283C106.885 121.833 105.65 123.048 104.081 123.929C102.531 124.79 100.818 125.22 98.943 125.22ZM98.943 122.379C100.263 122.379 101.44 122.082 102.474 121.489C103.507 120.877 104.311 120.015 104.885 118.905C105.478 117.776 105.775 116.475 105.775 115.002C105.775 113.528 105.478 112.236 104.885 111.127C104.311 110.017 103.507 109.165 102.474 108.572C101.44 107.979 100.263 107.682 98.943 107.682C97.6226 107.682 96.4457 107.979 95.4124 108.572C94.379 109.165 93.5657 110.017 92.9725 111.127C92.3984 112.236 92.1113 113.528 92.1113 115.002C92.1113 116.475 92.3984 117.776 92.9725 118.905C93.5657 120.015 94.379 120.877 95.4124 121.489C96.4457 122.082 97.6226 122.379 98.943 122.379ZM121.453 125.22C119.596 125.22 117.884 124.79 116.314 123.929C114.764 123.048 113.53 121.833 112.612 120.283C111.712 118.714 111.262 116.954 111.262 115.002C111.262 113.05 111.712 111.299 112.612 109.749C113.53 108.199 114.764 106.993 116.314 106.132C117.884 105.252 119.596 104.812 121.453 104.812C123.328 104.812 125.041 105.252 126.591 106.132C128.16 106.993 129.394 108.199 130.294 109.749C131.193 111.299 131.643 113.05 131.643 115.002C131.643 116.954 131.193 118.714 130.294 120.283C129.394 121.833 128.16 123.048 126.591 123.929C125.041 124.79 123.328 125.22 121.453 125.22ZM121.453 122.379C122.773 122.379 123.95 122.082 124.983 121.489C126.017 120.877 126.82 120.015 127.394 118.905C127.988 117.776 128.284 116.475 128.284 115.002C128.284 113.528 127.988 112.236 127.394 111.127C126.82 110.017 126.017 109.165 124.983 108.572C123.95 107.979 122.773 107.682 121.453 107.682C120.132 107.682 118.955 107.979 117.922 108.572C116.889 109.165 116.075 110.017 115.482 111.127C114.908 112.236 114.621 113.528 114.621 115.002C114.621 116.475 114.908 117.776 115.482 118.905C116.075 120.015 116.889 120.877 117.922 121.489C118.955 122.082 120.132 122.379 121.453 122.379ZM151.253 125.02H147.981L138.135 110.122V125.02H134.863V105.041H138.135L147.981 119.91V105.041H151.253V125.02Z" fill="white"/>
</svg>
